<?xml version="1.0" encoding="UTF-8" standalone="no"?>
<svg
   xmlns:dc="http://purl.org/dc/elements/1.1/"
   xmlns:cc="http://creativecommons.org/ns#"
   xmlns:rdf="http://www.w3.org/1999/02/22-rdf-syntax-ns#"
   xmlns:svg="http://www.w3.org/2000/svg"
   xmlns="http://www.w3.org/2000/svg"
   version="1.1"
   id="svg1598"
   width="512"
   height="512"
   viewBox="0 0 512 512">
  <metadata
     id="metadata1604">
    <rdf:RDF>
      <cc:Work
         rdf:about="">
        <dc:format>image/svg+xml</dc:format>
        <dc:type
           rdf:resource="http://purl.org/dc/dcmitype/StillImage" />
        <dc:title></dc:title>
      </cc:Work>
    </rdf:RDF>
  </metadata>
  <defs
     id="defs1602" />
  <g
     id="layer1"
     style="display:inline">
    <path
       id="path1610"
       style="display:inline;fill:#c80000;fill-opacity:1;fill-rule:evenodd;stroke:none;stroke-width:1px;stroke-linecap:butt;stroke-linejoin:miter;stroke-opacity:1"
       d="m 138.71094,159.35547 14.4082,78.52734 30.54297,22.58985 49.58398,0.39062 -6.78515,-47.63672 -48.96289,-21.08008 -10.0586,-31.14843 z m 22.48633,36.13281 51.61914,22.53906 1.92382,9.44532 -51.91992,-23.1875 z m 3.90429,21.05274 51.31641,22.4375 1.9043,9.0039 -52.21875,-23.05078 z" />
    <path
       id="path1616"
       style="display:inline;fill:#c80000;fill-opacity:1;fill-rule:evenodd;stroke:none;stroke-width:1px;stroke-linecap:butt;stroke-linejoin:miter;stroke-opacity:1"
       d="m 258.91016,150.9668 c -1.49624,-0.0123 -3.00853,-0.008 -4.53711,0.0117 -48.91468,0.63361 -77.08399,15.85742 -77.08399,15.85742 l 6.61328,20.45312 72.22461,31.32617 72.63086,-31.66601 7.13867,-20.25781 c 0,0 -30.60296,-15.34186 -76.98632,-15.72461 z m -2.89649,21.2832 c 14.40245,-0.32176 28.43555,7.73437 28.43555,7.73438 l -28.28516,15.60742 -28.16211,-16.15235 c 0,0 13.60927,-6.86769 28.01172,-7.18945 z" />
    <path
       id="path1620"
       style="display:inline;fill:#c80000;fill-opacity:1;fill-rule:evenodd;stroke:none;stroke-width:1px;stroke-linecap:butt;stroke-linejoin:miter;stroke-opacity:1"
       d="m 374.17188,159.06641 -29.12891,1.80273 -10.80664,31.36524 -47.45508,20.76953 -7.125,47.60156 48.49805,-0.3457 31.75195,-22.43555 z m -22.30469,35.74023 -3.20899,10.60742 -50.38086,21.53125 1.54297,-8.3164 z m -4.53516,21.22852 -1.92773,9.64062 -51.41407,22.26172 1.50977,-8.0918 z" />
    <path
       style="display:inline;fill:#c80000;fill-opacity:1;fill-rule:evenodd;stroke:none;stroke-width:1px;stroke-linecap:butt;stroke-linejoin:miter;stroke-opacity:1"
       d="m 235.24123,217.54065 22.24681,8.66806 19.99288,-9.09007 -8.27961,45.63738 -0.012,67.56288 -26.20079,0.2278 -0.40283,-69.63699 z"
       id="path1624" />
    <path
       style="display:inline;fill:#c80000;fill-opacity:1;fill-rule:evenodd;stroke:none;stroke-width:1px;stroke-linecap:butt;stroke-linejoin:miter;stroke-opacity:1"
       d="m 277.36583,281.71784 21.8272,16.51127 -0.28774,79.62863 -13.77058,5.98731 -5.50296,-33.77785 -45.68053,0.71211 -6.71146,33.6028 -14.5091,-5.93456 -0.19183,-79.78689 23.09564,-18.75801 0.0695,58.09157 41.40765,0.50114 z"
       id="path1626" />
    <path
       style="display:inline;fill:#c80000;fill-opacity:1;fill-rule:evenodd;stroke:none;stroke-width:1px;stroke-linecap:butt;stroke-linejoin:miter;stroke-opacity:1"
       d="m 307.16332,298.60077 27.74018,-15.28839 5.63963,-23.82457 17.71257,-11.46629 -8.25084,109.95604 -42.57298,17.21382 z"
       id="path1628" />
    <path
       style="display:inline;fill:#c80000;fill-opacity:1;fill-rule:evenodd;stroke:none;stroke-width:1px;stroke-linecap:butt;stroke-linejoin:miter;stroke-opacity:1"
       d="m 240.62909,357.63707 31.45438,0.53471 6.04246,33.34384 -44.36654,-0.46517 z"
       id="path1632" />
    <path
       style="display:inline;fill:#c80000;fill-opacity:1;fill-rule:evenodd;stroke:none;stroke-width:1px;stroke-linecap:butt;stroke-linejoin:miter;stroke-opacity:1"
       d="m 153.50973,246.6284 18.547,14.46834 6.1072,22.92059 27.11915,14.47074 -0.50114,76.44435 -42.15097,-17.43922 z"
       id="path1634" />
    <circle
       style="display:inline;opacity:1;mix-blend-mode:normal;fill:none;fill-opacity:1;stroke:#c80000;stroke-width:9.44882;stroke-linecap:butt;stroke-linejoin:miter;stroke-miterlimit:4;stroke-dasharray:none;stroke-dashoffset:0;stroke-opacity:1;paint-order:stroke markers fill"
       id="path1657"
       cx="-350.31848"
       cy="94.050087"
       r="168.96176"
       transform="rotate(-120)" />
    <circle
       transform="rotate(-120)"
       r="212.46788"
       cy="94.003693"
       cx="-350.14529"
       id="circle1659"
       style="display:inline;opacity:1;mix-blend-mode:normal;fill:none;fill-opacity:1;stroke:#c80000;stroke-width:9.44882;stroke-linecap:butt;stroke-linejoin:miter;stroke-miterlimit:4;stroke-dasharray:none;stroke-dashoffset:0;stroke-opacity:1;paint-order:stroke markers fill" />
  </g>
</svg>
